  0
SECTION
  2
HEADER
  9
$ACADVER
  1
AC1009
  9
$EXTMIN
 10
0.0
 20
0.0
 30
0.0
  9
$EXTMAX
 10
1000.0
 20
1000.0
 30
0.0
  9
$FILLMODE
 70
 0
  9
$SPLFRAME
 70
 1
  0
ENDSEC
  0
SECTION
  2
TABLES
  0
TABLE
  2
LAYER
 70
1
  0
LAYER
  2
0
 70
     0
 62
     7
  6
CONTINUOUS
  0
ENDTAB
  0
ENDSEC
  0
SECTION
  2
ENTITIES
  0
LINE
  8
0
 62
     0
 10
129.547
 20
96.5659
 30
0.0
 11
129.938
 21
96.551
 31
0.0
  0
LINE
  8
0
 62
     0
 10
129.938
 20
96.551
 30
0.0
 11
130.328
 21
96.5041
 31
0.0
  0
LINE
  8
0
 62
     0
 10
130.328
 20
96.5041
 30
0.0
 11
130.714
 21
96.4283
 31
0.0
  0
LINE
  8
0
 62
     0
 10
130.714
 20
96.4283
 30
0.0
 11
131.092
 21
96.3221
 31
0.0
  0
LINE
  8
0
 62
     0
 10
131.092
 20
96.3221
 30
0.0
 11
131.459
 21
96.1856
 31
0.0
  0
LINE
  8
0
 62
     0
 10
131.459
 20
96.1856
 30
0.0
 11
131.815
 21
96.0219
 31
0.0
  0
LINE
  8
0
 62
     0
 10
131.815
 20
96.0219
 30
0.0
 11
132.158
 21
95.8303
 31
0.0
  0
LINE
  8
0
 62
     0
 10
132.158
 20
95.8303
 30
0.0
 11
132.485
 21
95.6109
 31
0.0
  0
LINE
  8
0
 62
     0
 10
132.485
 20
95.6109
 30
0.0
 11
132.793
 21
95.3685
 31
0.0
  0
LINE
  8
0
 62
     0
 10
132.793
 20
95.3685
 30
0.0
 11
133.081
 21
95.1011
 31
0.0
  0
LINE
  8
0
 62
     0
 10
133.081
 20
95.1011
 30
0.0
 11
133.349
 21
94.8133
 31
0.0
  0
LINE
  8
0
 62
     0
 10
133.349
 20
94.8133
 30
0.0
 11
133.591
 21
94.5046
 31
0.0
  0
LINE
  8
0
 62
     0
 10
133.591
 20
94.5046
 30
0.0
 11
133.809
 21
94.1793
 31
0.0
  0
LINE
  8
0
 62
     0
 10
133.809
 20
94.1793
 30
0.0
 11
134.002
 21
93.8361
 31
0.0
  0
LINE
  8
0
 62
     0
 10
134.002
 20
93.8361
 30
0.0
 11
134.166
 21
93.4791
 31
0.0
  0
LINE
  8
0
 62
     0
 10
134.166
 20
93.4791
 30
0.0
 11
134.301
 21
93.1115
 31
0.0
  0
LINE
  8
0
 62
     0
 10
134.301
 20
93.1115
 30
0.0
 11
134.407
 21
92.7336
 31
0.0
  0
LINE
  8
0
 62
     0
 10
134.407
 20
92.7336
 30
0.0
 11
134.484
 21
92.3491
 31
0.0
  0
LINE
  8
0
 62
     0
 10
134.484
 20
92.3491
 30
0.0
 11
134.531
 21
91.9593
 31
0.0
  0
LINE
  8
0
 62
     0
 10
134.531
 20
91.9593
 30
0.0
 11
134.546
 21
91.5652
 31
0.0
  0
LINE
  8
0
 62
     0
 10
134.546
 20
91.5652
 30
0.0
 11
134.546
 21
5.21451
 31
0.0
  0
LINE
  8
0
 62
     0
 10
134.546
 20
5.21451
 30
0.0
 11
134.531
 21
4.82314
 31
0.0
  0
LINE
  8
0
 62
     0
 10
134.531
 20
4.82314
 30
0.0
 11
134.484
 21
4.43315
 31
0.0
  0
LINE
  8
0
 62
     0
 10
134.484
 20
4.43315
 30
0.0
 11
134.407
 21
4.04731
 31
0.0
  0
LINE
  8
0
 62
     0
 10
134.407
 20
4.04731
 30
0.0
 11
134.301
 21
3.6697
 31
0.0
  0
LINE
  8
0
 62
     0
 10
134.301
 20
3.6697
 30
0.0
 11
134.166
 21
3.30178
 31
0.0
  0
LINE
  8
0
 62
     0
 10
134.166
 20
3.30178
 30
0.0
 11
134.002
 21
2.94624
 31
0.0
  0
LINE
  8
0
 62
     0
 10
134.002
 20
2.94624
 30
0.0
 11
133.809
 21
2.60312
 31
0.0
  0
LINE
  8
0
 62
     0
 10
133.809
 20
2.60312
 30
0.0
 11
133.591
 21
2.27652
 31
0.0
  0
LINE
  8
0
 62
     0
 10
133.591
 20
2.27652
 30
0.0
 11
133.349
 21
1.96784
 31
0.0
  0
LINE
  8
0
 62
     0
 10
133.349
 20
1.96784
 30
0.0
 11
133.081
 21
1.67983
 31
0.0
  0
LINE
  8
0
 62
     0
 10
133.081
 20
1.67983
 30
0.0
 11
132.793
 21
1.41249
 31
0.0
  0
LINE
  8
0
 62
     0
 10
132.793
 20
1.41249
 30
0.0
 11
132.485
 21
1.16996
 31
0.0
  0
LINE
  8
0
 62
     0
 10
132.485
 20
1.16996
 30
0.0
 11
132.158
 21
0.952225
 31
0.0
  0
LINE
  8
0
 62
     0
 10
132.158
 20
0.952225
 30
0.0
 11
131.815
 21
0.759298
 31
0.0
  0
LINE
  8
0
 62
     0
 10
131.815
 20
0.759298
 30
0.0
 11
131.459
 21
0.595313
 31
0.0
  0
LINE
  8
0
 62
     0
 10
131.459
 20
0.595313
 30
0.0
 11
131.092
 21
0.460266
 31
0.0
  0
LINE
  8
0
 62
     0
 10
131.092
 20
0.460266
 30
0.0
 11
130.714
 21
0.354157
 31
0.0
  0
LINE
  8
0
 62
     0
 10
130.714
 20
0.354157
 30
0.0
 11
130.328
 21
0.276986
 31
0.0
  0
LINE
  8
0
 62
     0
 10
130.328
 20
0.276986
 30
0.0
 11
129.938
 21
0.230132
 31
0.0
  0
LINE
  8
0
 62
     0
 10
129.938
 20
0.230132
 30
0.0
 11
129.545
 21
0.214974
 31
0.0
  0
LINE
  8
0
 62
     0
 10
129.545
 20
0.214974
 30
0.0
 11
5.09598
 21
0.214974
 31
0.0
  0
LINE
  8
0
 62
     0
 10
5.09598
 20
0.214974
 30
0.0
 11
4.70186
 21
0.230132
 31
0.0
  0
LINE
  8
0
 62
     0
 10
4.70186
 20
0.230132
 30
0.0
 11
4.3119
 21
0.276986
 31
0.0
  0
LINE
  8
0
 62
     0
 10
4.3119
 20
0.276986
 30
0.0
 11
3.9274
 21
0.354157
 31
0.0
  0
LINE
  8
0
 62
     0
 10
3.9274
 20
0.354157
 30
0.0
 11
3.54983
 21
0.460266
 31
0.0
  0
LINE
  8
0
 62
     0
 10
3.54983
 20
0.460266
 30
0.0
 11
3.18189
 21
0.595313
 31
0.0
  0
LINE
  8
0
 62
     0
 10
3.18189
 20
0.595313
 30
0.0
 11
2.82498
 21
0.759298
 31
0.0
  0
LINE
  8
0
 62
     0
 10
2.82498
 20
0.759298
 30
0.0
 11
2.48185
 21
0.952225
 31
0.0
  0
LINE
  8
0
 62
     0
 10
2.48185
 20
0.952225
 30
0.0
 11
2.15663
 21
1.16996
 31
0.0
  0
LINE
  8
0
 62
     0
 10
2.15663
 20
1.16996
 30
0.0
 11
1.84795
 21
1.41249
 31
0.0
  0
LINE
  8
0
 62
     0
 10
1.84795
 20
1.41249
 30
0.0
 11
1.55994
 21
1.67983
 31
0.0
  0
LINE
  8
0
 62
     0
 10
1.55994
 20
1.67983
 30
0.0
 11
1.2926
 21
1.96784
 31
0.0
  0
LINE
  8
0
 62
     0
 10
1.2926
 20
1.96784
 30
0.0
 11
1.05006
 21
2.27652
 31
0.0
  0
LINE
  8
0
 62
     0
 10
1.05006
 20
2.27652
 30
0.0
 11
0.830957
 21
2.60312
 31
0.0
  0
LINE
  8
0
 62
     0
 10
0.830957
 20
2.60312
 30
0.0
 11
0.63941
 21
2.94624
 31
0.0
  0
LINE
  8
0
 62
     0
 10
0.63941
 20
2.94624
 30
0.0
 11
0.475424
 21
3.30178
 31
0.0
  0
LINE
  8
0
 62
     0
 10
0.475424
 20
3.30178
 30
0.0
 11
0.338998
 21
3.6697
 31
0.0
  0
LINE
  8
0
 62
     0
 10
0.338998
 20
3.6697
 30
0.0
 11
0.232888
 21
4.04731
 31
0.0
  0
LINE
  8
0
 62
     0
 10
0.232888
 20
4.04731
 30
0.0
 11
0.157097
 21
4.43315
 31
0.0
  0
LINE
  8
0
 62
     0
 10
0.157097
 20
4.43315
 30
0.0
 11
0.110243
 21
4.82314
 31
0.0
  0
LINE
  8
0
 62
     0
 10
0.110243
 20
4.82314
 30
0.0
 11
0.0950846
 21
5.21589
 31
0.0
  0
LINE
  8
0
 62
     0
 10
0.0950846
 20
5.21589
 30
0.0
 11
0.0950846
 21
91.5652
 31
0.0
  0
LINE
  8
0
 62
     0
 10
0.0950846
 20
91.5652
 30
0.0
 11
0.110243
 21
91.9593
 31
0.0
  0
LINE
  8
0
 62
     0
 10
0.110243
 20
91.9593
 30
0.0
 11
0.157097
 21
92.3491
 31
0.0
  0
LINE
  8
0
 62
     0
 10
0.157097
 20
92.3491
 30
0.0
 11
0.232888
 21
92.7336
 31
0.0
  0
LINE
  8
0
 62
     0
 10
0.232888
 20
92.7336
 30
0.0
 11
0.338998
 21
93.1115
 31
0.0
  0
LINE
  8
0
 62
     0
 10
0.338998
 20
93.1115
 30
0.0
 11
0.475424
 21
93.4791
 31
0.0
  0
LINE
  8
0
 62
     0
 10
0.475424
 20
93.4791
 30
0.0
 11
0.63941
 21
93.8361
 31
0.0
  0
LINE
  8
0
 62
     0
 10
0.63941
 20
93.8361
 30
0.0
 11
0.830957
 21
94.1793
 31
0.0
  0
LINE
  8
0
 62
     0
 10
0.830957
 20
94.1793
 30
0.0
 11
1.05006
 21
94.5046
 31
0.0
  0
LINE
  8
0
 62
     0
 10
1.05006
 20
94.5046
 30
0.0
 11
1.2926
 21
94.8133
 31
0.0
  0
LINE
  8
0
 62
     0
 10
1.2926
 20
94.8133
 30
0.0
 11
1.55994
 21
95.1011
 31
0.0
  0
LINE
  8
0
 62
     0
 10
1.55994
 20
95.1011
 30
0.0
 11
1.84795
 21
95.3685
 31
0.0
  0
LINE
  8
0
 62
     0
 10
1.84795
 20
95.3685
 30
0.0
 11
2.15663
 21
95.6109
 31
0.0
  0
LINE
  8
0
 62
     0
 10
2.15663
 20
95.6109
 30
0.0
 11
2.48185
 21
95.8303
 31
0.0
  0
LINE
  8
0
 62
     0
 10
2.48185
 20
95.8303
 30
0.0
 11
2.82498
 21
96.0219
 31
0.0
  0
LINE
  8
0
 62
     0
 10
2.82498
 20
96.0219
 30
0.0
 11
3.18189
 21
96.1856
 31
0.0
  0
LINE
  8
0
 62
     0
 10
3.18189
 20
96.1856
 30
0.0
 11
3.54983
 21
96.3221
 31
0.0
  0
LINE
  8
0
 62
     0
 10
3.54983
 20
96.3221
 30
0.0
 11
3.9274
 21
96.4283
 31
0.0
  0
LINE
  8
0
 62
     0
 10
3.9274
 20
96.4283
 30
0.0
 11
4.3119
 21
96.5041
 31
0.0
  0
LINE
  8
0
 62
     0
 10
4.3119
 20
96.5041
 30
0.0
 11
4.70186
 21
96.551
 31
0.0
  0
LINE
  8
0
 62
     0
 10
4.70186
 20
96.551
 30
0.0
 11
5.09598
 21
96.5659
 31
0.0
  0
LINE
  8
0
 62
     0
 10
5.09598
 20
96.5659
 30
0.0
 11
129.547
 21
96.5659
 31
0.0
  0
LINE
  8
0
 62
     0
 10
4.5751
 20
7.12033
 30
0.0
 11
4.03902
 21
6.84749
 31
0.0
  0
LINE
  8
0
 62
     0
 10
4.03902
 20
6.84749
 30
0.0
 11
3.61184
 21
6.42165
 31
0.0
  0
LINE
  8
0
 62
     0
 10
3.61184
 20
6.42165
 30
0.0
 11
3.33899
 21
5.88423
 31
0.0
  0
LINE
  8
0
 62
     0
 10
3.33899
 20
5.88423
 30
0.0
 11
3.2439
 21
5.29029
 31
0.0
  0
LINE
  8
0
 62
     0
 10
3.2439
 20
5.29029
 30
0.0
 11
3.33899
 21
4.69498
 31
0.0
  0
LINE
  8
0
 62
     0
 10
3.33899
 20
4.69498
 30
0.0
 11
3.61184
 21
4.15893
 31
0.0
  0
LINE
  8
0
 62
     0
 10
3.61184
 20
4.15893
 30
0.0
 11
4.03902
 21
3.73309
 31
0.0
  0
LINE
  8
0
 62
     0
 10
4.03902
 20
3.73309
 30
0.0
 11
4.5751
 21
3.46025
 31
0.0
  0
LINE
  8
0
 62
     0
 10
4.5751
 20
3.46025
 30
0.0
 11
5.16901
 21
3.36517
 31
0.0
  0
LINE
  8
0
 62
     0
 10
5.16901
 20
3.36517
 30
0.0
 11
5.76432
 21
3.46025
 31
0.0
  0
LINE
  8
0
 62
     0
 10
5.76432
 20
3.46025
 30
0.0
 11
6.30178
 21
3.73309
 31
0.0
  0
LINE
  8
0
 62
     0
 10
6.30178
 20
3.73309
 30
0.0
 11
6.72758
 21
4.15893
 31
0.0
  0
LINE
  8
0
 62
     0
 10
6.72758
 20
4.15893
 30
0.0
 11
7.00045
 21
4.69498
 31
0.0
  0
LINE
  8
0
 62
     0
 10
7.00045
 20
4.69498
 30
0.0
 11
7.09415
 21
5.29029
 31
0.0
  0
LINE
  8
0
 62
     0
 10
7.09415
 20
5.29029
 30
0.0
 11
7.00045
 21
5.88423
 31
0.0
  0
LINE
  8
0
 62
     0
 10
7.00045
 20
5.88423
 30
0.0
 11
6.72758
 21
6.42165
 31
0.0
  0
LINE
  8
0
 62
     0
 10
6.72758
 20
6.42165
 30
0.0
 11
6.30178
 21
6.84749
 31
0.0
  0
LINE
  8
0
 62
     0
 10
6.30178
 20
6.84749
 30
0.0
 11
5.76432
 21
7.12033
 31
0.0
  0
LINE
  8
0
 62
     0
 10
5.76432
 20
7.12033
 30
0.0
 11
5.16901
 21
7.21402
 31
0.0
  0
LINE
  8
0
 62
     0
 10
5.16901
 20
7.21402
 30
0.0
 11
4.5751
 21
7.12033
 31
0.0
  0
LINE
  8
0
 62
     0
 10
66.7262
 20
7.12033
 30
0.0
 11
66.1899
 21
6.84749
 31
0.0
  0
LINE
  8
0
 62
     0
 10
66.1899
 20
6.84749
 30
0.0
 11
65.7641
 21
6.42165
 31
0.0
  0
LINE
  8
0
 62
     0
 10
65.7641
 20
6.42165
 30
0.0
 11
65.49
 21
5.88423
 31
0.0
  0
LINE
  8
0
 62
     0
 10
65.49
 20
5.88423
 30
0.0
 11
65.3948
 21
5.29029
 31
0.0
  0
LINE
  8
0
 62
     0
 10
65.3948
 20
5.29029
 30
0.0
 11
65.49
 21
4.69498
 31
0.0
  0
LINE
  8
0
 62
     0
 10
65.49
 20
4.69498
 30
0.0
 11
65.7641
 21
4.15893
 31
0.0
  0
LINE
  8
0
 62
     0
 10
65.7641
 20
4.15893
 30
0.0
 11
66.1899
 21
3.73309
 31
0.0
  0
LINE
  8
0
 62
     0
 10
66.1899
 20
3.73309
 30
0.0
 11
66.7262
 21
3.46025
 31
0.0
  0
LINE
  8
0
 62
     0
 10
66.7262
 20
3.46025
 30
0.0
 11
67.3199
 21
3.36517
 31
0.0
  0
LINE
  8
0
 62
     0
 10
67.3199
 20
3.36517
 30
0.0
 11
67.9154
 21
3.46025
 31
0.0
  0
LINE
  8
0
 62
     0
 10
67.9154
 20
3.46025
 30
0.0
 11
68.4512
 21
3.73309
 31
0.0
  0
LINE
  8
0
 62
     0
 10
68.4512
 20
3.73309
 30
0.0
 11
68.877
 21
4.15893
 31
0.0
  0
LINE
  8
0
 62
     0
 10
68.877
 20
4.15893
 30
0.0
 11
69.1515
 21
4.69498
 31
0.0
  0
LINE
  8
0
 62
     0
 10
69.1515
 20
4.69498
 30
0.0
 11
69.245
 21
5.29029
 31
0.0
  0
LINE
  8
0
 62
     0
 10
69.245
 20
5.29029
 30
0.0
 11
69.1515
 21
5.88423
 31
0.0
  0
LINE
  8
0
 62
     0
 10
69.1515
 20
5.88423
 30
0.0
 11
68.877
 21
6.42165
 31
0.0
  0
LINE
  8
0
 62
     0
 10
68.877
 20
6.42165
 30
0.0
 11
68.4512
 21
6.84749
 31
0.0
  0
LINE
  8
0
 62
     0
 10
68.4512
 20
6.84749
 30
0.0
 11
67.9154
 21
7.12033
 31
0.0
  0
LINE
  8
0
 62
     0
 10
67.9154
 20
7.12033
 30
0.0
 11
67.3199
 21
7.21402
 31
0.0
  0
LINE
  8
0
 62
     0
 10
67.3199
 20
7.21402
 30
0.0
 11
66.7262
 21
7.12033
 31
0.0
  0
LINE
  8
0
 62
     0
 10
128.877
 20
7.12033
 30
0.0
 11
128.339
 21
6.84749
 31
0.0
  0
LINE
  8
0
 62
     0
 10
128.339
 20
6.84749
 30
0.0
 11
127.914
 21
6.42165
 31
0.0
  0
LINE
  8
0
 62
     0
 10
127.914
 20
6.42165
 30
0.0
 11
127.641
 21
5.88423
 31
0.0
  0
LINE
  8
0
 62
     0
 10
127.641
 20
5.88423
 30
0.0
 11
127.546
 21
5.29029
 31
0.0
  0
LINE
  8
0
 62
     0
 10
127.546
 20
5.29029
 30
0.0
 11
127.641
 21
4.69498
 31
0.0
  0
LINE
  8
0
 62
     0
 10
127.641
 20
4.69498
 30
0.0
 11
127.914
 21
4.15893
 31
0.0
  0
LINE
  8
0
 62
     0
 10
127.914
 20
4.15893
 30
0.0
 11
128.339
 21
3.73309
 31
0.0
  0
LINE
  8
0
 62
     0
 10
128.339
 20
3.73309
 30
0.0
 11
128.877
 21
3.46025
 31
0.0
  0
LINE
  8
0
 62
     0
 10
128.877
 20
3.46025
 30
0.0
 11
129.471
 21
3.36517
 31
0.0
  0
LINE
  8
0
 62
     0
 10
129.471
 20
3.36517
 30
0.0
 11
130.066
 21
3.46025
 31
0.0
  0
LINE
  8
0
 62
     0
 10
130.066
 20
3.46025
 30
0.0
 11
130.602
 21
3.73309
 31
0.0
  0
LINE
  8
0
 62
     0
 10
130.602
 20
3.73309
 30
0.0
 11
131.028
 21
4.15893
 31
0.0
  0
LINE
  8
0
 62
     0
 10
131.028
 20
4.15893
 30
0.0
 11
131.301
 21
4.69498
 31
0.0
  0
LINE
  8
0
 62
     0
 10
131.301
 20
4.69498
 30
0.0
 11
131.396
 21
5.29029
 31
0.0
  0
LINE
  8
0
 62
     0
 10
131.396
 20
5.29029
 30
0.0
 11
131.301
 21
5.88423
 31
0.0
  0
LINE
  8
0
 62
     0
 10
131.301
 20
5.88423
 30
0.0
 11
131.028
 21
6.42165
 31
0.0
  0
LINE
  8
0
 62
     0
 10
131.028
 20
6.42165
 30
0.0
 11
130.602
 21
6.84749
 31
0.0
  0
LINE
  8
0
 62
     0
 10
130.602
 20
6.84749
 30
0.0
 11
130.066
 21
7.12033
 31
0.0
  0
LINE
  8
0
 62
     0
 10
130.066
 20
7.12033
 30
0.0
 11
129.471
 21
7.21402
 31
0.0
  0
LINE
  8
0
 62
     0
 10
129.471
 20
7.21402
 30
0.0
 11
128.877
 21
7.12033
 31
0.0
  0
LINE
  8
0
 62
     0
 10
10.2457
 20
86.4168
 30
0.0
 11
124.395
 21
86.4168
 31
0.0
  0
LINE
  8
0
 62
     0
 10
124.395
 20
86.4168
 30
0.0
 11
124.395
 21
10.3642
 31
0.0
  0
LINE
  8
0
 62
     0
 10
124.395
 20
10.3642
 30
0.0
 11
10.2457
 21
10.3642
 31
0.0
  0
LINE
  8
0
 62
     0
 10
10.2457
 20
10.3642
 30
0.0
 11
10.2457
 21
86.4168
 31
0.0
  0
LINE
  8
0
 62
     0
 10
4.5751
 20
93.3221
 30
0.0
 11
4.03902
 21
93.0494
 31
0.0
  0
LINE
  8
0
 62
     0
 10
4.03902
 20
93.0494
 30
0.0
 11
3.61184
 21
92.6222
 31
0.0
  0
LINE
  8
0
 62
     0
 10
3.61184
 20
92.6222
 30
0.0
 11
3.33899
 21
92.0859
 31
0.0
  0
LINE
  8
0
 62
     0
 10
3.33899
 20
92.0859
 30
0.0
 11
3.2439
 21
91.4908
 31
0.0
  0
LINE
  8
0
 62
     0
 10
3.2439
 20
91.4908
 30
0.0
 11
3.33899
 21
90.8967
 31
0.0
  0
LINE
  8
0
 62
     0
 10
3.33899
 20
90.8967
 30
0.0
 11
3.61184
 21
90.3594
 31
0.0
  0
LINE
  8
0
 62
     0
 10
3.61184
 20
90.3594
 30
0.0
 11
4.03902
 21
89.9336
 31
0.0
  0
LINE
  8
0
 62
     0
 10
4.03902
 20
89.9336
 30
0.0
 11
4.5751
 21
89.6606
 31
0.0
  0
LINE
  8
0
 62
     0
 10
4.5751
 20
89.6606
 30
0.0
 11
5.16901
 21
89.5657
 31
0.0
  0
LINE
  8
0
 62
     0
 10
5.16901
 20
89.5657
 30
0.0
 11
5.76432
 21
89.6606
 31
0.0
  0
LINE
  8
0
 62
     0
 10
5.76432
 20
89.6606
 30
0.0
 11
6.30178
 21
89.9336
 31
0.0
  0
LINE
  8
0
 62
     0
 10
6.30178
 20
89.9336
 30
0.0
 11
6.72758
 21
90.3594
 31
0.0
  0
LINE
  8
0
 62
     0
 10
6.72758
 20
90.3594
 30
0.0
 11
7.00045
 21
90.8967
 31
0.0
  0
LINE
  8
0
 62
     0
 10
7.00045
 20
90.8967
 30
0.0
 11
7.09415
 21
91.4908
 31
0.0
  0
LINE
  8
0
 62
     0
 10
7.09415
 20
91.4908
 30
0.0
 11
7.00045
 21
92.0859
 31
0.0
  0
LINE
  8
0
 62
     0
 10
7.00045
 20
92.0859
 30
0.0
 11
6.72758
 21
92.6222
 31
0.0
  0
LINE
  8
0
 62
     0
 10
6.72758
 20
92.6222
 30
0.0
 11
6.30178
 21
93.0494
 31
0.0
  0
LINE
  8
0
 62
     0
 10
6.30178
 20
93.0494
 30
0.0
 11
5.76432
 21
93.3221
 31
0.0
  0
LINE
  8
0
 62
     0
 10
5.76432
 20
93.3221
 30
0.0
 11
5.16901
 21
93.4159
 31
0.0
  0
LINE
  8
0
 62
     0
 10
5.16901
 20
93.4159
 30
0.0
 11
4.5751
 21
93.3221
 31
0.0
  0
LINE
  8
0
 62
     0
 10
128.877
 20
93.3221
 30
0.0
 11
128.339
 21
93.0494
 31
0.0
  0
LINE
  8
0
 62
     0
 10
128.339
 20
93.0494
 30
0.0
 11
127.914
 21
92.6222
 31
0.0
  0
LINE
  8
0
 62
     0
 10
127.914
 20
92.6222
 30
0.0
 11
127.641
 21
92.0859
 31
0.0
  0
LINE
  8
0
 62
     0
 10
127.641
 20
92.0859
 30
0.0
 11
127.546
 21
91.4908
 31
0.0
  0
LINE
  8
0
 62
     0
 10
127.546
 20
91.4908
 30
0.0
 11
127.641
 21
90.8967
 31
0.0
  0
LINE
  8
0
 62
     0
 10
127.641
 20
90.8967
 30
0.0
 11
127.914
 21
90.3594
 31
0.0
  0
LINE
  8
0
 62
     0
 10
127.914
 20
90.3594
 30
0.0
 11
128.339
 21
89.9336
 31
0.0
  0
LINE
  8
0
 62
     0
 10
128.339
 20
89.9336
 30
0.0
 11
128.877
 21
89.6606
 31
0.0
  0
LINE
  8
0
 62
     0
 10
128.877
 20
89.6606
 30
0.0
 11
129.471
 21
89.5657
 31
0.0
  0
LINE
  8
0
 62
     0
 10
129.471
 20
89.5657
 30
0.0
 11
130.066
 21
89.6606
 31
0.0
  0
LINE
  8
0
 62
     0
 10
130.066
 20
89.6606
 30
0.0
 11
130.602
 21
89.9336
 31
0.0
  0
LINE
  8
0
 62
     0
 10
130.602
 20
89.9336
 30
0.0
 11
131.028
 21
90.3594
 31
0.0
  0
LINE
  8
0
 62
     0
 10
131.028
 20
90.3594
 30
0.0
 11
131.301
 21
90.8967
 31
0.0
  0
LINE
  8
0
 62
     0
 10
131.301
 20
90.8967
 30
0.0
 11
131.396
 21
91.4908
 31
0.0
  0
LINE
  8
0
 62
     0
 10
131.396
 20
91.4908
 30
0.0
 11
131.301
 21
92.0859
 31
0.0
  0
LINE
  8
0
 62
     0
 10
131.301
 20
92.0859
 30
0.0
 11
131.028
 21
92.6222
 31
0.0
  0
LINE
  8
0
 62
     0
 10
131.028
 20
92.6222
 30
0.0
 11
130.602
 21
93.0494
 31
0.0
  0
LINE
  8
0
 62
     0
 10
130.602
 20
93.0494
 30
0.0
 11
130.066
 21
93.3221
 31
0.0
  0
LINE
  8
0
 62
     0
 10
130.066
 20
93.3221
 30
0.0
 11
129.471
 21
93.4173
 31
0.0
  0
LINE
  8
0
 62
     0
 10
129.471
 20
93.4173
 30
0.0
 11
128.877
 21
93.3221
 31
0.0
  0
LINE
  8
0
 62
     0
 10
66.7262
 20
93.3221
 30
0.0
 11
66.1899
 21
93.0494
 31
0.0
  0
LINE
  8
0
 62
     0
 10
66.1899
 20
93.0494
 30
0.0
 11
65.7641
 21
92.6222
 31
0.0
  0
LINE
  8
0
 62
     0
 10
65.7641
 20
92.6222
 30
0.0
 11
65.49
 21
92.0859
 31
0.0
  0
LINE
  8
0
 62
     0
 10
65.49
 20
92.0859
 30
0.0
 11
65.3948
 21
91.4908
 31
0.0
  0
LINE
  8
0
 62
     0
 10
65.3948
 20
91.4908
 30
0.0
 11
65.49
 21
90.8967
 31
0.0
  0
LINE
  8
0
 62
     0
 10
65.49
 20
90.8967
 30
0.0
 11
65.7641
 21
90.3594
 31
0.0
  0
LINE
  8
0
 62
     0
 10
65.7641
 20
90.3594
 30
0.0
 11
66.1899
 21
89.9336
 31
0.0
  0
LINE
  8
0
 62
     0
 10
66.1899
 20
89.9336
 30
0.0
 11
66.7262
 21
89.6606
 31
0.0
  0
LINE
  8
0
 62
     0
 10
66.7262
 20
89.6606
 30
0.0
 11
67.3199
 21
89.5657
 31
0.0
  0
LINE
  8
0
 62
     0
 10
67.3199
 20
89.5657
 30
0.0
 11
67.9154
 21
89.6606
 31
0.0
  0
LINE
  8
0
 62
     0
 10
67.9154
 20
89.6606
 30
0.0
 11
68.4512
 21
89.9336
 31
0.0
  0
LINE
  8
0
 62
     0
 10
68.4512
 20
89.9336
 30
0.0
 11
68.877
 21
90.3594
 31
0.0
  0
LINE
  8
0
 62
     0
 10
68.877
 20
90.3594
 30
0.0
 11
69.1515
 21
90.8967
 31
0.0
  0
LINE
  8
0
 62
     0
 10
69.1515
 20
90.8967
 30
0.0
 11
69.245
 21
91.4908
 31
0.0
  0
LINE
  8
0
 62
     0
 10
69.245
 20
91.4908
 30
0.0
 11
69.1515
 21
92.0859
 31
0.0
  0
LINE
  8
0
 62
     0
 10
69.1515
 20
92.0859
 30
0.0
 11
68.877
 21
92.6222
 31
0.0
  0
LINE
  8
0
 62
     0
 10
68.877
 20
92.6222
 30
0.0
 11
68.4512
 21
93.0494
 31
0.0
  0
LINE
  8
0
 62
     0
 10
68.4512
 20
93.0494
 30
0.0
 11
67.9154
 21
93.3221
 31
0.0
  0
LINE
  8
0
 62
     0
 10
67.9154
 20
93.3221
 30
0.0
 11
67.3199
 21
93.4173
 31
0.0
  0
LINE
  8
0
 62
     0
 10
67.3199
 20
93.4173
 30
0.0
 11
66.7262
 21
93.3221
 31
0.0
  0
ENDSEC
  0
EOF
