<?xml version="1.0"?>
<!-- Generated by SVGo -->
<svg width="144.452mm" height="106.352mm"
     viewBox="0.000 0.000 144.452 106.352"
     xmlns="http://www.w3.org/2000/svg" 
     xmlns:xlink="http://www.w3.org/1999/xlink">
<polygon points="134.452,5.001 134.844,5.016 135.234,5.062 135.619,5.139 135.997,5.245 136.365,5.381 136.721,5.545 137.064,5.737 137.390,5.955 137.699,6.198 137.987,6.465 138.254,6.753 138.497,7.062 138.715,7.388 138.907,7.731 139.071,8.087 139.207,8.455 139.313,8.833 139.390,9.218 139.436,9.608 139.452,10.001 139.452,96.352 139.436,96.744 139.390,97.134 139.313,97.519 139.207,97.897 139.071,98.265 138.907,98.621 138.715,98.964 138.497,99.290 138.254,99.599 137.987,99.887 137.699,100.154 137.390,100.397 137.064,100.615 136.721,100.807 136.365,100.971 135.997,101.107 135.619,101.213 135.234,101.290 134.844,101.336 134.451,101.352 10.001,101.352 9.608,101.336 9.218,101.290 8.833,101.213 8.455,101.107 8.087,100.971 7.731,100.807 7.388,100.615 7.062,100.397 6.753,100.154 6.465,99.887 6.198,99.599 5.955,99.290 5.737,98.964 5.545,98.621 5.381,98.265 5.245,97.897 5.139,97.519 5.062,97.134 5.016,96.744 5.000,96.351 5.001,10.001 5.016,9.608 5.062,9.218 5.139,8.833 5.245,8.455 5.381,8.087 5.545,7.731 5.737,7.388 5.955,7.062 6.198,6.753 6.465,6.465 6.753,6.198 7.062,5.955 7.388,5.737 7.731,5.545 8.087,5.381 8.455,5.245 8.833,5.139 9.218,5.062 9.608,5.016 10.001,5.000" style="fill:none;stroke-width:0.050000mm;stroke:black"/>
<polygon points="9.481,94.446 8.944,94.719 8.518,95.145 8.245,95.682 8.149,96.277 8.245,96.871 8.518,97.408 8.944,97.834 9.481,98.107 10.075,98.202 10.670,98.107 11.207,97.834 11.633,97.408 11.906,96.871 12.000,96.277 11.906,95.682 11.633,95.145 11.207,94.719 10.670,94.446 10.075,94.352" style="fill:none;stroke-width:0.050000mm;stroke:black"/>
<polygon points="71.631,94.446 71.095,94.719 70.669,95.145 70.395,95.682 70.301,96.277 70.395,96.871 70.669,97.408 71.095,97.834 71.631,98.107 72.226,98.202 72.821,98.107 73.357,97.834 73.783,97.408 74.057,96.871 74.151,96.277 74.057,95.682 73.783,95.145 73.357,94.719 72.821,94.446 72.226,94.352" style="fill:none;stroke-width:0.050000mm;stroke:black"/>
<polygon points="133.782,94.446 133.245,94.719 132.819,95.145 132.546,95.682 132.451,96.277 132.546,96.871 132.819,97.408 133.245,97.834 133.782,98.107 134.376,98.202 134.971,98.107 135.508,97.834 135.934,97.408 136.207,96.871 136.302,96.277 136.207,95.682 135.934,95.145 135.508,94.719 134.971,94.446 134.376,94.352" style="fill:none;stroke-width:0.050000mm;stroke:black"/>
<polygon points="15.075,15.075 15.075,91.277 129.377,91.277 129.377,15.075" style="fill:none;stroke-width:0.050000mm;stroke:black"/>
<polygon points="9.481,8.245 8.944,8.518 8.518,8.944 8.245,9.481 8.149,10.076 8.245,10.670 8.518,11.207 8.944,11.633 9.481,11.906 10.075,12.001 10.670,11.906 11.207,11.633 11.633,11.207 11.906,10.670 12.000,10.076 11.906,9.481 11.633,8.944 11.207,8.518 10.670,8.245 10.075,8.151" style="fill:none;stroke-width:0.050000mm;stroke:black"/>
<polygon points="133.782,8.245 133.245,8.518 132.819,8.944 132.546,9.481 132.451,10.076 132.546,10.670 132.819,11.207 133.245,11.633 133.782,11.906 134.376,12.001 134.971,11.906 135.508,11.633 135.934,11.207 136.207,10.670 136.302,10.076 136.207,9.481 135.934,8.944 135.508,8.518 134.971,8.245 134.376,8.149" style="fill:none;stroke-width:0.050000mm;stroke:black"/>
<polygon points="71.631,8.245 71.095,8.518 70.669,8.944 70.395,9.481 70.301,10.076 70.395,10.670 70.669,11.207 71.095,11.633 71.631,11.906 72.226,12.001 72.821,11.906 73.357,11.633 73.783,11.207 74.057,10.670 74.151,10.076 74.057,9.481 73.783,8.944 73.357,8.518 72.821,8.245 72.226,8.149" style="fill:none;stroke-width:0.050000mm;stroke:black"/>
</svg>
